<?xml version="1.0" encoding="UTF-8" standalone="no"?>
<!-- Created with Inkscape (http://www.inkscape.org/) -->

<svg
   version="1.1"
   id="svg9"
   width="65mm"
   height="65mm"
   viewBox="0 0 245.6693 245.6693"
   sodipodi:docname="seatbelt-pngrepo-com_fra_png.svg"
   inkscape:version="1.1.2 (b8e25be833, 2022-02-05)"
   xmlns:inkscape="http://www.inkscape.org/namespaces/inkscape"
   xmlns:sodipodi="http://sodipodi.sourceforge.net/DTD/sodipodi-0.dtd"
   xmlns="http://www.w3.org/2000/svg"
   xmlns:svg="http://www.w3.org/2000/svg">
  <defs
     id="defs13" />
  <sodipodi:namedview
     id="namedview11"
     pagecolor="#ffffff"
     bordercolor="#666666"
     borderopacity="1.0"
     inkscape:pageshadow="2"
     inkscape:pageopacity="0.0"
     inkscape:pagecheckerboard="0"
     showgrid="false"
     inkscape:document-units="mm"
     inkscape:zoom="2.5174751"
     inkscape:cx="192.05751"
     inkscape:cy="106.05865"
     inkscape:window-width="1920"
     inkscape:window-height="1017"
     inkscape:window-x="-8"
     inkscape:window-y="-8"
     inkscape:window-maximized="1"
     inkscape:current-layer="g15"
     units="mm" />
  <g
     inkscape:groupmode="layer"
     inkscape:label="Image"
     id="g15">
    <path
       style="fill:#000000;stroke-width:0.0391156"
       d="m 206.12496,230.29128 c -1.52766,-1.53381 -1.76681,-1.78951 -1.76794,-1.89028 -0.001,-0.10215 0.20891,-0.32584 1.70295,-1.81354 l 1.70424,-1.69701 -0.27745,-0.28703 c -0.44239,-0.45766 -0.57404,-0.25154 1.47073,-2.3027 1.63482,-1.63992 1.75699,-1.75364 1.88404,-1.75364 0.12763,0 0.28433,0.14894 2.58688,2.45868 2.2989,2.30609 2.45103,2.46712 2.45103,2.59445 0,0.12672 -0.11622,0.25244 -1.74711,1.88992 -2.04898,2.05727 -1.84609,1.92729 -2.30091,1.4741 l -0.28108,-0.28008 -1.66725,1.69044 c -1.66456,1.68771 -1.66751,1.69044 -1.82937,1.69044 -0.16172,0 -0.16645,-0.004 -1.92876,-1.77375 z m 3.53509,-3.50491 -1.41458,-1.41975 -1.52459,1.5177 -1.52459,1.51769 1.41748,1.43104 1.41748,1.43105 1.52169,-1.52899 1.5217,-1.52899 z m 4.01288,0.22478 1.40564,-1.41044 -2.11858,-2.1252 -2.11858,-2.1252 -1.41564,1.42007 -1.41564,1.42006 2.10872,2.11558 c 1.15979,1.16357 2.11765,2.11558 2.12858,2.11558 0.0109,0 0.6524,-0.6347 1.4255,-1.41045 z m -1.79659,0.0611 c -0.0644,-0.029 -0.66637,-0.60622 -1.33762,-1.28262 -1.19068,-1.19979 -1.22046,-1.2336 -1.22046,-1.38543 0,-0.15017 0.0277,-0.18343 0.79121,-0.94859 0.76227,-0.76397 0.79685,-0.79297 0.9458,-0.79297 0.15087,0 0.18504,0.0305 1.41539,1.26472 l 1.26077,1.26472 v 0.17056 c 0,0.16847 -0.008,0.17916 -0.69322,0.87389 -0.88692,0.89986 -0.93804,0.93663 -1.16187,0.83572 z m 0.64467,-1.21698 0.44812,-0.4508 -0.94665,-0.94961 -0.94665,-0.94961 -0.45869,0.46012 -0.45869,0.46012 0.93675,0.94029 c 0.51521,0.51716 0.94596,0.94029 0.95722,0.94029 0.0113,0 0.22212,-0.20286 0.46859,-0.4508 z m 2.73732,4.86712 c -0.15567,-0.0798 -0.25224,-0.24055 -0.22101,-0.36791 0.0182,-0.0743 0.38539,-0.47159 1.10745,-1.1983 l 1.08019,-1.08716 h -0.49879 c -0.47751,0 -0.50288,-0.004 -0.59465,-0.0962 -0.13042,-0.13083 -0.13042,-0.34285 0,-0.47368 l 0.0959,-0.0962 h 0.97287 c 0.9251,0 0.97793,0.004 1.07578,0.0812 l 0.10291,0.0812 v 0.97836 0.97835 l -0.0959,0.0962 c -0.12083,0.12121 -0.32231,0.12769 -0.46517,0.015 -0.10186,-0.0804 -0.1029,-0.0864 -0.1029,-0.59718 v -0.51599 l -1.10329,1.10268 c -0.60682,0.60648 -1.13845,1.11283 -1.18141,1.12522 -0.043,0.0124 -0.12035,8.8e-4 -0.17198,-0.0256 z m 0.0909,-6.82474 c -0.14443,-0.0722 -0.52934,-0.43528 -1.50553,-1.42016 -1.16034,-1.17065 -1.31891,-1.34541 -1.37582,-1.51622 -0.0761,-0.22828 -0.0818,-0.44239 -0.0178,-0.66428 0.0379,-0.1315 0.20274,-0.32027 0.89337,-1.02314 0.50667,-0.51564 0.88378,-0.93271 0.93874,-1.03818 0.0726,-0.13933 0.0921,-0.23872 0.0928,-0.47406 8.9e-4,-0.29306 -0.004,-0.30748 -0.30177,-0.91326 -0.16752,-0.34067 -0.30267,-0.66638 -0.30267,-0.72945 0,-0.0941 0.0823,-0.19449 0.47187,-0.57546 0.74647,-0.73005 0.97625,-0.84899 1.59803,-0.82713 0.31955,0.0112 0.40623,0.03 0.62487,0.13526 0.13962,0.0672 0.36326,0.22256 0.49698,0.34521 l 0.24313,0.22299 1.69008,-1.7079 c 1.48159,-1.49721 1.70441,-1.70774 1.80624,-1.7066 0.10045,0.001 0.35536,0.24103 1.88439,1.77347 1.76317,1.7671 1.76822,1.77263 1.76822,1.93458 0,0.16208 -0.004,0.16597 -1.68242,1.83301 l -1.68243,1.67059 0.19827,0.22958 c 0.50619,0.58613 0.60548,1.2772 0.28195,1.96248 -0.0715,0.15141 -0.24614,0.36398 -0.58746,0.71498 -0.42389,0.43591 -0.50177,0.4995 -0.61168,0.4995 -0.0792,0 -0.36319,-0.11825 -0.76468,-0.31838 -0.59695,-0.29756 -0.65533,-0.31853 -0.89258,-0.32062 -0.43982,-0.004 -0.53275,0.0602 -1.52314,1.04994 -0.4833,0.48299 -0.9282,0.89663 -0.98867,0.91921 -0.20108,0.0751 -0.54065,0.0498 -0.75222,-0.056 z m 0.58158,-0.61266 c 0.0469,-0.024 0.45438,-0.41081 0.90546,-0.85954 0.72064,-0.71689 0.85331,-0.83157 1.09353,-0.94524 0.25532,-0.12082 0.30066,-0.12938 0.68636,-0.12968 l 0.41299,-3.1e-4 -0.13534,-0.21242 c -0.0744,-0.11683 -0.24829,-0.42481 -0.38635,-0.6844 -0.33318,-0.62646 -0.54387,-0.90291 -1.09558,-1.43755 -0.52447,-0.50823 -0.90577,-0.79287 -1.48834,-1.11107 -0.22276,-0.12167 -0.4999,-0.2821 -0.61587,-0.35652 -0.11597,-0.0744 -0.21635,-0.1353 -0.22307,-0.1353 -0.007,0 -0.004,0.0974 0.006,0.21635 0.01,0.11899 -0.004,0.32614 -0.0298,0.46033 -0.0945,0.48377 -0.18318,0.60942 -1.05696,1.49763 -0.44514,0.45249 -0.83004,0.86304 -0.85533,0.91233 -0.0253,0.0493 -0.0345,0.12863 -0.0205,0.1763 0.0292,0.0992 2.45722,2.56335 2.576,2.61428 0.10646,0.0457 0.12876,0.0452 0.22713,-0.005 z m -1.09503,-1.69098 c -1.01318,-1.01634 -0.99246,-0.89602 -0.27877,-1.61903 0.52021,-0.527 0.66417,-0.63004 0.82372,-0.58959 0.0487,0.0124 0.44451,0.38115 0.87948,0.81953 0.82475,0.83122 0.85275,0.8719 0.74012,1.07518 -0.0577,0.10422 -0.95664,1.02277 -1.04999,1.07294 -0.0362,0.0195 -0.12357,0.0354 -0.19421,0.0354 -0.11495,0 -0.21157,-0.0834 -0.92035,-0.79439 z m 0.93744,-0.93801 -0.45834,-0.46097 -0.22576,0.22409 -0.22575,0.2241 0.45834,0.46097 0.45834,0.46098 0.22576,-0.2241 0.22575,-0.22409 z m 5.12866,0.34163 c 0.12047,-0.2539 0.12235,-0.52574 0.005,-0.77009 -0.0647,-0.13521 -0.6589,-0.76104 -2.29539,-2.41768 -2.45759,-2.48787 -2.37228,-2.41627 -2.84493,-2.38736 -0.33528,0.0205 -0.46853,0.0893 -0.84205,0.43486 l -0.30822,0.28511 0.27017,0.22533 c 0.36075,0.30089 0.79867,0.59031 1.40739,0.93014 0.5899,0.32932 0.96467,0.60158 1.39335,1.0122 0.60401,0.57859 1.05662,1.17991 1.52521,2.0264 0.23444,0.42348 0.5497,0.88307 0.83787,1.22143 l 0.17717,0.20803 0.29059,-0.28625 c 0.17114,-0.16857 0.32881,-0.36676 0.38354,-0.48212 z m 1.23601,-6.7199 -1.41748,-1.43105 -1.52169,1.52899 -1.52169,1.52898 1.41458,1.41975 1.41458,1.41975 1.52459,-1.51769 1.52459,-1.51769 z m -11.66226,2.34885 -0.1029,-0.0812 v -0.99794 -0.99795 l 0.0959,-0.0962 c 0.0662,-0.0664 0.13927,-0.0962 0.2361,-0.0962 0.0968,0 0.16992,0.0298 0.2361,0.0962 0.0918,0.0921 0.0959,0.11747 0.0959,0.59718 v 0.50102 l 1.06424,-1.06545 c 0.58533,-0.586 1.11419,-1.0841 1.17524,-1.10688 0.21309,-0.0795 0.49145,0.16002 0.43821,0.37712 -0.0182,0.0743 -0.38539,0.47158 -1.10745,1.1983 l -1.0802,1.08715 h 0.4988 c 0.4775,0 0.50288,0.004 0.59465,0.0962 0.0662,0.0664 0.0959,0.13971 0.0959,0.23684 0,0.0971 -0.0297,0.17045 -0.0959,0.23684 l -0.0959,0.0962 h -0.97288 c -0.92509,0 -0.97792,-0.004 -1.07577,-0.0812 z"
       id="path561" />
  </g>
</svg>
