<?xml version="1.0" encoding="UTF-8" standalone="no"?>
<!-- Created with Inkscape (http://www.inkscape.org/) -->

<svg
   version="1.1"
   id="svg1887"
   width="65mm"
   height="65mm"
   viewBox="0 0 245.6693 245.6693"
   sodipodi:docname="seat-belt-pngrepo-com_mann.svg"
   inkscape:version="1.1.2 (b8e25be833, 2022-02-05)"
   xmlns:inkscape="http://www.inkscape.org/namespaces/inkscape"
   xmlns:sodipodi="http://sodipodi.sourceforge.net/DTD/sodipodi-0.dtd"
   xmlns="http://www.w3.org/2000/svg"
   xmlns:svg="http://www.w3.org/2000/svg">
  <defs
     id="defs1891" />
  <sodipodi:namedview
     id="namedview1889"
     pagecolor="#ffffff"
     bordercolor="#666666"
     borderopacity="1.0"
     inkscape:pageshadow="2"
     inkscape:pageopacity="0.0"
     inkscape:pagecheckerboard="0"
     showgrid="false"
     inkscape:document-units="mm"
     units="mm"
     inkscape:zoom="1.578125"
     inkscape:cx="232.23762"
     inkscape:cy="256"
     inkscape:window-width="1920"
     inkscape:window-height="1017"
     inkscape:window-x="-8"
     inkscape:window-y="-8"
     inkscape:window-maximized="1"
     inkscape:current-layer="g1893" />
  <g
     inkscape:groupmode="layer"
     inkscape:label="Image"
     id="g1893">
    <path
       style="fill:#000000;stroke-width:0.152182"
       d="m 53.479282,79.348653 c -0.782791,-0.691283 -2.368481,-4.120388 -3.191233,-6.90114 -0.819136,-2.768534 -1.186485,-4.945655 -1.619706,-9.599328 l -0.100772,-1.082503 -0.52782,0.09253 c -0.290302,0.05089 -2.144313,0.501136 -4.120025,1.000542 -1.975711,0.499408 -3.81776,0.932844 -4.09344,0.963192 -0.418642,0.04609 -1.010583,-0.231816 -3.592203,-1.686458 -1.700031,-0.957899 -3.260133,-1.900563 -3.466894,-2.094809 -0.46423,-0.436129 -0.481881,-1.02026 -0.04476,-1.481291 0.755865,-0.797213 8.131715,-3.097996 13.858724,-4.323014 l 2.100333,-0.449265 0.28553,-1.650983 c 1.513074,-8.748815 6.560977,-15.77351 13.811665,-19.220403 2.018119,-0.959391 2.384591,-1.215992 2.945491,-2.062423 0.445345,-0.672052 0.499329,-0.892785 0.55552,-2.271425 l 0.06224,-1.527032 -0.840723,-0.451958 C 65.038812,26.354309 64.174876,25.715784 63.58135,25.18394 59.313703,21.359802 59.409999,15.40678 63.798984,11.729676 67.152177,8.9203611 71.742428,8.0218701 76.188356,9.3045951 c 1.735119,0.500611 2.902571,1.1279989 4.407659,2.3686719 3.67112,3.026174 4.49572,7.576912 2.07301,11.440298 -0.78589,1.253228 -2.432136,2.81262 -3.67413,3.480292 l -0.823927,0.44293 0.0023,1.258833 c 0.0041,2.269068 -0.607373,2.587039 6.751097,-3.510543 l 6.53926,-5.418741 h 0.73309 c 0.7164,0 0.78409,0.0418 2.97447,1.836633 1.23277,1.010149 2.35531,2.016807 2.49453,2.23702 0.53319,0.843332 0.45568,0.924121 -6.13757,6.397484 l -6.18505,5.134504 1.31413,1.119941 c 4.84658,4.130388 7.9988,9.961163 8.9156,16.491539 l 0.19729,1.405241 2.01882,0.441623 c 6.468725,1.415051 13.312755,3.438004 13.967415,4.128475 0.43765,0.461583 0.42023,1.045571 -0.0442,1.481883 -0.53302,0.500757 -6.48443,3.820703 -6.84908,3.820703 -0.16639,0 -1.74783,-0.367528 -3.51431,-0.816727 -4.113575,-1.04604 -5.290945,-1.316438 -5.386585,-1.237095 -0.0425,0.03522 -0.15652,0.995154 -0.25349,2.133186 -0.45953,5.392982 -1.56746,9.697804 -3.45145,13.410481 -0.41858,0.824862 -0.94644,1.682536 -1.17303,1.905941 l -0.41197,0.406193 h -4.41275 c -4.17103,0 -4.43082,-0.01499 -4.74266,-0.273702 -0.59243,-0.491502 -0.58269,-0.88233 0.0527,-2.113578 1.25465,-2.431228 1.9497,-5.132173 2.28827,-8.892048 0.15804,-1.755126 0.15577,-2.221829 -0.0112,-2.307451 -0.22977,-0.117809 -2.64917,-0.446883 -5.257884,-0.715145 -2.639868,-0.271465 -10.532737,-0.228096 -13.343253,0.07332 -2.485641,0.266574 -4.5857,0.571642 -4.723794,0.686209 -0.150672,0.125002 0.286801,4.413126 0.61089,5.98794 0.386596,1.87856 0.998983,3.658959 1.777303,5.167175 0.635389,1.231248 0.645133,1.622076 0.0527,2.113578 -0.311781,0.258663 -0.571566,0.273701 -4.728383,0.273701 -4.357055,0 -4.401831,-0.003 -4.754841,-0.314707 z m 5.548946,-3.601134 c -1.240625,-3.581436 -2.018387,-10.218406 -1.327372,-11.32702 0.30128,-0.483352 0.66893,-0.588621 3.595108,-1.029384 3.784242,-0.570011 5.949726,-0.707961 11.110768,-0.707801 4.903029,1.38e-4 6.383762,0.09103 10.358913,0.635763 2.77154,0.379798 3.66338,0.608156 3.98994,1.021634 0.74303,0.94081 -0.0346,7.740982 -1.30451,11.406808 l -0.54018,1.559406 h 2.04452 2.04451 l 0.52208,-1.040422 c 1.72665,-3.440966 2.7988,-7.7093 3.19149,-12.705564 0.10196,-1.297304 0.16008,-2.379723 0.12916,-2.405376 -0.12479,-0.103531 -3.87714,-0.768088 -6.15065,-1.089307 -10.024417,-1.416325 -18.689094,-1.418513 -28.821165,-0.0073 -2.456527,0.342156 -6.091163,0.977924 -6.224868,1.088849 -0.129607,0.107526 0.324964,4.874541 0.629274,6.599106 0.566579,3.210874 1.493646,6.151239 2.693038,8.541456 l 0.511092,1.018534 h 2.044518 2.04452 z M 92.502225,52.391086 c -0.9076,-5.75599 -3.98958,-11.276645 -8.22077,-14.725632 l -1.10277,-0.898899 -9.020169,7.483057 -9.020171,7.483058 2.631718,-0.09292 c 3.110785,-0.109829 9.918791,0.07548 13.668652,0.372048 2.74608,0.217183 7.51836,0.772512 9.43027,1.09736 1.89467,0.321918 1.80354,0.361983 1.63324,-0.718076 z M 75.590814,31.116007 C 75.29246,30.37865 75.163539,29.763685 75.163539,29.077881 v -0.982149 l -0.710087,0.105598 c -0.390548,0.05808 -1.386757,0.105599 -2.213799,0.105599 -0.827042,0 -1.823252,-0.04752 -2.2138,-0.105599 l -0.710087,-0.105598 v 0.959586 c 0,2.460658 -1.557263,4.452787 -4.536155,5.802873 -5.068029,2.29692 -9.162512,6.71089 -11.338157,12.222853 -0.589158,1.492624 -1.334846,4.105996 -1.334846,4.678161 0,0.151451 4.725986,-3.670366 11.95574,-9.668384 l 11.955741,-9.918836 z"
       id="path2103" />
  </g>
</svg>
